<?xml version="1.0" encoding="utf-8"?>
<!-- Generator: Adobe Illustrator 22.1.0, SVG Export Plug-In . SVG Version: 6.00 Build 0)  -->
<svg version="1.1" id="Layer_1" xmlns="http://www.w3.org/2000/svg" xmlns:xlink="http://www.w3.org/1999/xlink" x="0px" y="0px"
	 viewBox="0 0 362 362" style="enable-background:new 0 0 362 362;" xml:space="preserve">
<style type="text/css">
	.st0{fill-rule:evenodd;clip-rule:evenodd;fill:#FFFFFF;}
	.st1{fill-rule:evenodd;clip-rule:evenodd;fill:#D7282A;}
	.st2{fill-rule:evenodd;clip-rule:evenodd;fill:#45AC43;}
	.st3{fill-rule:evenodd;clip-rule:evenodd;fill:#5D7FBE;}
	.st4{fill-rule:evenodd;clip-rule:evenodd;fill:#F4C300;}
	.st5{fill:#00B67A;}
	.st6{fill:#005128;}
	.st7{fill:#D9C594;}
	.st8{fill:#FFFFFF;}
</style>
<g>
	<circle class="st0" cx="181" cy="181" r="181"/>
	<g>
		<path class="st1" d="M77.2,127.6c4.9-10.7,11.7-20,19.8-28.4c18.2-19.1,40.3-31.3,66.3-35.5c36.5-5.8,69.2,2.8,97.5,27.1
			c1.8,1.5,2.2,2.4,0.3,4.3c-10,9.8-19.8,19.7-29.7,29.6c-1,1-1.7,2.2-3.5,0.6c-24.9-22.8-65.5-22.5-91.9,2
			c-9.1,8.4-15.5,18.5-19.7,30.1c-0.6-0.4-1.3-0.8-1.8-1.2C102,146.8,89.6,137.2,77.2,127.6z"/>
		<path class="st2" d="M116,204c3.6,9.1,8,17.6,14.6,24.9c16.7,18.5,37.5,26.5,62.4,23.9c11.6-1.2,22.1-5.1,31.9-11.1
			c0.9,0.8,1.8,1.7,2.8,2.5c11.5,9,23,18,34.6,26.9c-12.7,12.1-27.7,20.1-44.6,24.4c-39.8,10.1-76.5,3.7-109-22
			c-13.5-10.6-24.1-23.7-31.5-39.3C90.1,224.2,103,214.1,116,204z"/>
		<path class="st3" d="M262.2,271.1c-11.5-9-23-17.9-34.6-26.9c-1-0.8-1.9-1.7-2.8-2.5c7.8-6,14.3-13,18.6-21.9
			c1.7-3.6,2.9-7.3,4-11.1c0.8-2.6,0.5-3.6-2.7-3.6c-19.2,0.2-38.3,0.1-57.5,0.1c-4.1,0-4.1,0-4.1-4.2c0-13,0.1-26-0.1-39
			c0-2.5,0.4-3.5,3.2-3.5c35.4,0.1,70.7,0.1,106.1,0c1.9,0,3.1,0.1,3.4,2.5c4.4,30.9,0.9,60.5-15.3,87.8
			C275.6,257.2,269.7,264.8,262.2,271.1z"/>
		<path class="st4" d="M116,204c-13,10.1-25.9,20.1-38.9,30.2c-6.3-11.8-10-24.4-11.7-37.6c-3-22.8,0.3-44.7,10-65.7
			c0.5-1.1,1.2-2.2,1.8-3.3c12.4,9.6,24.8,19.1,37.2,28.7c0.6,0.4,1.2,0.8,1.8,1.2C111.1,173,111.3,188.5,116,204z"/>
	</g>
</g>
</svg>
