<?xml version="1.0" encoding="utf-8"?>
<!-- Generator: Adobe Illustrator 22.1.0, SVG Export Plug-In . SVG Version: 6.00 Build 0)  -->
<svg version="1.1" id="Layer_1" xmlns="http://www.w3.org/2000/svg" xmlns:xlink="http://www.w3.org/1999/xlink" x="0px" y="0px"
	 viewBox="0 0 256 256" style="enable-background:new 0 0 256 256;" xml:space="preserve">
<style type="text/css">
	.st0{fill:#13BF6D;}
	.st1{fill:#76FFBA;}
	.st2{fill:#139C6D;}
	.st3{fill:#72C1E8;}
	.st4{fill:#C5E5FF;}
	.st5{fill:#57A2D4;}
	.st6{fill:#F0C020;}
	.st7{fill:#F0AB20;}
	.st8{fill:#F9E5AF;}
	.st9{fill:#FC5D3D;}
	.st10{fill:#FFCBC2;}
	.st11{fill:#FFFFFF;}
	.st12{fill:#F2E1D6;}
	.st13{fill:#AFAFAF;}
	.st14{fill:#EFEFEF;}
</style>
<g>
	<polygon class="st0" points="249,204.2 128,241.7 7,204.2 49.6,191 62.1,187.1 128,207.5 193.9,187.1 206.4,191 	"/>
	<path class="st1" d="M128,231.8c-0.2,0-0.5,0-0.7-0.1l-81-25.1c-1.3-0.4-2.1-1.8-1.6-3.1c0.4-1.3,1.8-2.1,3.1-1.6l80.3,24.9
		l66.9-20.7c1.3-0.4,2.7,0.3,3.1,1.6c0.4,1.3-0.3,2.7-1.6,3.1l-67.7,21C128.5,231.8,128.2,231.8,128,231.8z M202.8,206.1
		c-0.4-1.3,0.3-2.7,1.6-3.1l3.8-1.2c1.3-0.4,2.7,0.3,3.1,1.6c0.4,1.3-0.3,2.7-1.6,3.1l-3.8,1.2C204.6,208.2,203.2,207.4,202.8,206.1
		z"/>
	<polygon class="st2" points="206.4,191 128,215.3 49.6,191 62.1,187.1 128,207.5 193.9,187.1 	"/>
	<polygon class="st3" points="231.2,175.6 193.9,187.1 128,207.6 62.1,187.1 24.8,175.6 67.4,162.4 79.9,158.5 79.9,158.5 
		128,173.4 128,173.4 176.1,158.5 188.6,162.4 	"/>
	<path class="st4" d="M127.3,197.5l-48.5-15c-1.3-0.4-2.1-1.8-1.6-3.1c0.4-1.3,1.8-2.1,3.1-1.6l47.8,14.8l62.5-19.4
		c1.3-0.4,2.7,0.3,3.1,1.6c0.4,1.3-0.3,2.7-1.6,3.1l-63.3,19.6C128.3,197.7,127.7,197.7,127.3,197.5z M69.2,179.5l-5.2-1.6
		c-1.3-0.4-2.1-1.8-1.6-3.1c0.4-1.3,1.8-2.1,3.1-1.6l5.2,1.6c1.3,0.4,2.1,1.8,1.6,3.1C71.9,179.2,70.5,180,69.2,179.5z"/>
	<polygon class="st5" points="188.6,162.3 128,181.2 67.4,162.3 79.9,158.5 128,173.4 176.1,158.5 	"/>
	<path class="st6" d="M148.2,126.7l-8.1-2.5c-6.9,9.7-12.1,16.4-12.1,16.4s-5.2-6.6-12.1-16.4l-8.1,2.5l-65.3,20.2l37.3,11.6h0
		l48.1,14.9l0,0l48.2-14.9l37.3-11.6L148.2,126.7z"/>
	<path class="st7" d="M148.2,126.7L132,148.2c-2,2.7-6,2.7-8,0l-16.2-21.5l8.1-2.5c6.9,9.7,12.1,16.4,12.1,16.4s5.2-6.6,12.1-16.4
		L148.2,126.7z"/>
	<path class="st8" d="M127.3,163.4L83.9,150c-1.3-0.4-2.1-1.8-1.6-3.1c0.4-1.3,1.8-2.1,3.1-1.6l42.6,13.2l32.3-10
		c1.3-0.4,2.7,0.3,3.1,1.6c0.4,1.3-0.3,2.7-1.6,3.1l-33,10.2C128.3,163.6,127.7,163.6,127.3,163.4z M168.2,148.6
		c-0.4-1.3,0.3-2.7,1.6-3.1l2.9-0.9c1.3-0.4,2.7,0.3,3.1,1.6c0.4,1.3-0.3,2.7-1.6,3.1l-2.9,0.9C170,150.6,168.6,149.9,168.2,148.6z"
		/>
	<path class="st9" d="M128,14.3c-24.7,0-44.8,20-44.8,44.8c0,16.3,19.4,46.4,32.6,65.1c6.9,9.7,12.1,16.4,12.1,16.4
		s5.2-6.6,12.1-16.4c13.3-18.7,32.6-48.9,32.6-65.1C172.8,34.4,152.7,14.3,128,14.3z"/>
	<path class="st10" d="M126,128.9c-0.8-1.1-1.6-2.1-2.4-3.2c-0.8-1.1-0.6-2.7,0.6-3.5c1.1-0.8,2.7-0.6,3.5,0.6
		c0.8,1.1,1.6,2.2,2.4,3.2c0.8,1.1,0.6,2.7-0.5,3.5C128.4,130.2,126.8,130,126,128.9z M117.8,117.4c-8.7-12.6-29-43.6-29-58.3
		c0-21.6,17.6-39.3,39.3-39.3c1.4,0,2.5,1.1,2.5,2.5s-1.1,2.5-2.5,2.5c-18.9,0-34.3,15.4-34.3,34.3c0,9.3,10.5,30,28.2,55.5
		c0.8,1.1,0.5,2.7-0.6,3.5C120.1,118.8,118.6,118.5,117.8,117.4z"/>
	<circle class="st11" cx="128" cy="59.1" r="21.2"/>
	<path d="M128,35.3c-13.2,0-23.8,10.6-23.8,23.7c0,13.1,10.6,23.8,23.8,23.8c13.1,0,23.7-10.7,23.8-23.8
		C151.7,46,141.1,35.3,128,35.3z M128,77.8c-10.3,0-18.7-8.4-18.8-18.8c0-10.3,8.4-18.7,18.8-18.7c10.3,0,18.7,8.4,18.8,18.7
		C146.7,69.4,138.3,77.8,128,77.8z"/>
	<path d="M156.1,21c-1.1-0.8-2.7-0.5-3.5,0.5c-0.8,1.2-0.6,2.7,0.5,3.5c0,0,0,0,0,0c1.1,0.8,2.7,0.6,3.5-0.5
		C157.4,23.4,157.2,21.9,156.1,21C156.1,21,156.1,21,156.1,21z"/>
	<path d="M249.7,201.8l-47.4-14.7l29.6-9.2c2.3-0.7,2.3-4,0-4.8l-47.4-14.7l29.6-9.2c1-0.3,1.8-1.3,1.8-2.4s-0.7-2.1-1.8-2.4
		l-70.1-21.7c10.2-14.6,31-46,31.1-63.8c0-11.3-4.1-22.3-11.5-30.9c-0.9-1-2.5-1.1-3.5-0.3c-1.1,0.9-1.1,2.5-0.3,3.5
		c6.6,7.7,10.3,17.5,10.3,27.6c0.1,19.2-30.5,62.2-42.3,77.4c-11.7-15.3-42.4-58.2-42.3-77.4c0-23.3,18.9-42.3,42.3-42.3
		c5.9,0,11.6,1.2,16.9,3.5c1.2,0.5,2.8-0.1,3.3-1.3c0.5-1.3,0-2.7-1.3-3.3c-6-2.6-12.4-4-19-4c-26,0-47.3,21-47.3,47.3
		c0.1,17.8,20.9,49.2,31.1,63.8l-70.1,21.7c-2.3,0.7-2.3,4,0,4.8l29.6,9.2L24,173.2c-2.3,0.7-2.3,4,0,4.8l29.6,9.2L6.3,201.8
		c-2.3,0.7-2.3,4,0,4.8l121,37.5c0.2,0.1,0.5,0.1,0.7,0.1c0.3,0,0.5,0,0.7-0.1l121-37.5C252.1,205.8,252.1,202.5,249.7,201.8z
		 M51,146.9c0.5-0.2,63.4-19.6,63.8-19.9c6.4,8.9,11.2,15,11.2,15c1,1.2,2.9,1.3,3.9,0c0,0,4.8-6.1,11.1-15l63.9,19.8
		c-28.1,8.7-59.9,18.5-77,23.9C126.1,170.2,52.9,147.5,51,146.9z M33.2,175.5l46.6-14.5l47.4,14.7c0.5,0.1,1,0.1,1.5,0
		c0,0,47.4-14.7,47.4-14.7l46.6,14.5L128,204.9L33.2,175.5z M128,239.1L15.4,204.2l46.6-14.4c8.1,2.5,55.7,17.3,65.2,20.2
		c0.5,0.2,1,0.2,1.5,0l65.2-20.2l46.6,14.4L128,239.1z"/>
</g>
</svg>
