<?xml version="1.0" encoding="utf-8"?>
<!-- Generator: Adobe Illustrator 22.1.0, SVG Export Plug-In . SVG Version: 6.00 Build 0)  -->
<svg version="1.1" id="Layer_1" xmlns="http://www.w3.org/2000/svg" xmlns:xlink="http://www.w3.org/1999/xlink" x="0px" y="0px"
	 viewBox="0 0 256 256" style="enable-background:new 0 0 256 256;" xml:space="preserve">
<style type="text/css">
	.st0{fill:#13BF6D;}
	.st1{fill:#76FFBA;}
	.st2{fill:#139C6D;}
	.st3{fill:#72C1E8;}
	.st4{fill:#C5E5FF;}
	.st5{fill:#57A2D4;}
	.st6{fill:#F0C020;}
	.st7{fill:#F0AB20;}
	.st8{fill:#F9E5AF;}
	.st9{fill:#FC5D3D;}
	.st10{fill:#FFCBC2;}
	.st11{fill:#FFFFFF;}
	.st12{fill:#F2E1D6;}
	.st13{fill:#AFAFAF;}
	.st14{fill:#EFEFEF;}
</style>
<path class="st6" d="M75.3,130.6c-8.2,8.7-13.2,20.4-13.2,33.3c0,12.9,5,24.6,13.2,33.3l-23.3,22c-29.3-31.1-29.3-79.5,0-110.5
	L75.3,130.6z"/>
<path class="st3" d="M191,163.9c0,20.6-7.8,40.2-22,55.3l-23.3-22c5-5.2,8.8-11.6,11-18.6H130c-7.6,0-13.8-6.2-13.8-13.8
	c0-7.7,6.2-13.8,13.8-13.8h48.1C185,150.9,191,156.5,191,163.9z"/>
<path class="st9" d="M139.5,108.6c-3.1,6-9.9,9.8-17.9,8.2c-16.1-3.8-34,1-46.3,13.9l-23.3-22c20.3-21.5,49.8-29.5,77-23.1
	C139.2,88,144.3,99.3,139.5,108.6z"/>
<path class="st0" d="M169.1,219.2c-14.7,15.5-35.5,25.2-58.5,25.2c-23.1,0-43.8-9.7-58.5-25.2l23.3-22c8.8,9.4,21.4,15.2,35.2,15.2
	s26.4-5.8,35.2-15.2L169.1,219.2z"/>
<path d="M32.5,192.5c-0.2-1.4-1.6-2.5-3-2.2c-1.4,0.2-2.5,1.5-2.2,3c0.2,1.5,1.6,2.5,3,2.2C31.7,195.3,32.7,193.9,32.5,192.5z"/>
<path d="M110.6,249.9c46.1,0,84-37.3,84-84c0-9.4-7.6-16.4-16.4-16.5H130c-9.6,0-17.3,7.8-17.3,17.3c0,9.5,7.8,17.3,17.3,17.3h21.7
	c-6.7,15.1-22,26.8-41.2,26.8c-25.4,0-45-20.7-45-45c0-28.2,25.8-50.4,55.3-43.8c9.2,1.9,17.7-2.4,21.7-10c0,0,0,0,0,0
	c5.8-11.2-0.3-25-12.8-28C77.8,72,28,110.7,26.6,163.7c-0.1,1.9,1.5,3.6,3.5,3.6c1.9,0,3.4-1.5,3.5-3.4c0.5-17.7,7.1-34.8,18.7-48.2
	l18.2,17.2c-7.7,9.3-11.9,21-11.9,33.1c0,12,4.2,23.8,11.9,33.1c-5.9,5.6-2.2,2.1-18.2,17.2c-6.7-7.7-11.6-16.5-14.8-26.1
	c-0.6-1.8-2.6-2.8-4.4-2.2c-1.8,0.6-2.8,2.6-2.2,4.4C41.8,225.8,73.4,249.9,110.6,249.9z M57,110.6c19.4-18.8,46.5-25.5,71.2-19.6
	c8,1.9,11.9,10.8,8.2,18c0,0,0,0,0,0c-2.6,4.9-7.7,7.5-14,6.4c-16.1-3.8-34,0.3-47.1,12.5C68.4,121.4,72.2,124.9,57,110.6z
	 M160.1,181.7c0.7-2.2-1-4.5-3.3-4.5H130c-5.7,0-10.3-4.7-10.4-10.4c0-5.7,4.7-10.3,10.4-10.4h48.1c5.3,0,9.5,4.2,9.5,9.5
	c0,18.5-6.6,36.3-18.7,50.3L150.6,199C154.9,193.9,158.1,188,160.1,181.7z M75.3,204.1c9.6,8.9,22.2,13.8,35.3,13.8
	c13.1,0,25.7-4.9,35.3-13.8c8.7,8.2,4.6,4.3,18.2,17.2c-14.4,14-33.4,21.6-53.5,21.6c-20.1,0-39.1-7.7-53.5-21.6L75.3,204.1z"/>
<g>
	<path class="st12" d="M238.2,7.4H116.8c-4.1,0-7.3,3.3-7.3,7.3v56.8c0,4.1,3.3,7.3,7.3,7.3h52l8.7,13.1l8.7-13.1h52
		c4.1,0,7.3-3.3,7.3-7.3V14.7C245.6,10.6,242.3,7.4,238.2,7.4z"/>
	<path class="st11" d="M116.2,73.4c-1.1,0-1.9-0.9-1.9-1.9v-2.3c0-1.1,0.9-1.9,1.9-1.9c1.1,0,1.9,0.9,1.9,1.9v2.3
		C118.1,72.5,117.2,73.4,116.2,73.4z M116.2,63.4c-1.1,0-1.9-0.9-1.9-1.9V14.7c0-1.4,1.2-2.6,2.6-2.6h121.4c1.1,0,1.9,0.9,1.9,1.9
		s-0.9,1.9-1.9,1.9H118.1v45.6C118.1,62.6,117.2,63.4,116.2,63.4z"/>
	<circle class="st6" cx="200.8" cy="36.1" r="12.7"/>
	<path class="st8" d="M204.4,41.6c-0.8-0.7-0.9-1.9-0.2-2.7c1.4-1.7,1.4-4.2-0.2-5.9c-1.7-1.7-4.4-1.7-6.1,0c-0.7,0.7-2,0.7-2.7,0
		c-0.7-0.7-0.7-2,0-2.7c3.2-3.2,8.4-3.2,11.5,0c1.5,1.5,2.4,3.6,2.4,5.8c0,1.9-0.7,3.8-1.9,5.3C206.4,42.2,205.2,42.3,204.4,41.6z"
		/>
	<path d="M245.6,58.3c-1.1,0-1.9,0.9-1.9,1.9c0,1.1,0.9,1.9,1.9,1.9c1,0,1.9-0.9,1.9-1.9C247.5,59.1,246.6,58.3,245.6,58.3z"/>
	<path d="M247.5,14.7c0-5.1-4.1-9.3-9.2-9.3H116.8c-5.1,0-9.2,4.2-9.3,9.3v56.8c0,5.1,4.2,9.2,9.3,9.2h51l8.2,12.2
		c0.8,1.1,2.4,1.1,3.2,0l8.2-12.2h51c5.1,0,9.2-4.2,9.2-9.2v-3.6c0-1.1-0.9-1.9-1.9-1.9c-1.1,0-1.9,0.9-1.9,1.9v3.6
		c0,3-2.4,5.4-5.4,5.4h-52c-0.6,0-1.2,0.3-1.6,0.8l-7.2,10.7l-7.2-10.7c-0.4-0.5-0.9-0.8-1.6-0.8h-52c-3,0-5.4-2.4-5.4-5.4V14.7
		c0-3,2.4-5.4,5.4-5.4h121.4c3,0,5.4,2.4,5.4,5.4v37.8c0,1.1,0.9,1.9,1.9,1.9c1,0,1.9-0.9,1.9-1.9V14.7z"/>
	<path d="M169.8,22.9H129c-1.1,0-1.9,0.9-1.9,1.9c0,1.1,0.9,1.9,1.9,1.9h40.8c1.1,0,1.9-0.9,1.9-1.9
		C171.7,23.8,170.8,22.9,169.8,22.9z"/>
	<path d="M169.8,35.1H129c-1.1,0-1.9,0.9-1.9,1.9s0.9,1.9,1.9,1.9h40.8c1.1,0,1.9-0.9,1.9-1.9S170.8,35.1,169.8,35.1z"/>
	<path d="M129,51.1h8.4c1,0,1.9-0.9,1.9-1.9c0-1.1-0.9-1.9-1.9-1.9H129c-1.1,0-1.9,0.9-1.9,1.9C127.1,50.2,128,51.1,129,51.1z"/>
	<path d="M169.8,47.3h-17.1c-1.1,0-1.9,0.9-1.9,1.9c0,1.1,0.9,1.9,1.9,1.9h17.1c1.1,0,1.9-0.9,1.9-1.9
		C171.7,48.1,170.8,47.3,169.8,47.3z"/>
	<path d="M147,49.2c0-1.1-0.9-1.9-1.9-1.9c-1.1,0-1.9,0.9-1.9,1.9c0,1.1,0.9,1.9,1.9,1.9C146.1,51.1,147,50.2,147,49.2z"/>
	<path d="M129,63.3h40.8c1.1,0,1.9-0.9,1.9-1.9c0-1.1-0.9-1.9-1.9-1.9H129c-1.1,0-1.9,0.9-1.9,1.9C127.1,62.4,128,63.3,129,63.3z"/>
	<path d="M200.8,21.5c-8,0-14.6,6.5-14.6,14.6c0,8,6.5,14.6,14.6,14.6c3.3,0,6.4-1.1,8.9-3l15,15c0.7,0.7,2,0.7,2.7,0
		c0.7-0.7,0.7-2,0-2.7l-15-15c1.9-2.5,3-5.5,3-8.9C215.4,28.1,208.9,21.5,200.8,21.5z M200.8,46.9c-5.9,0-10.7-4.8-10.8-10.8
		c0-5.9,4.8-10.7,10.8-10.8c5.9,0,10.7,4.8,10.8,10.8C211.6,42,206.7,46.9,200.8,46.9z"/>
</g>
</svg>
