<?xml version="1.0" encoding="utf-8"?>
<!-- Generator: Adobe Illustrator 22.1.0, SVG Export Plug-In . SVG Version: 6.00 Build 0)  -->
<svg version="1.1" id="Layer_1" xmlns="http://www.w3.org/2000/svg" xmlns:xlink="http://www.w3.org/1999/xlink" x="0px" y="0px"
	 viewBox="0 0 256 256" style="enable-background:new 0 0 256 256;" xml:space="preserve">
<style type="text/css">
	.st0{fill:#13BF6D;}
	.st1{fill:#76FFBA;}
	.st2{fill:#139C6D;}
	.st3{fill:#72C1E8;}
	.st4{fill:#C5E5FF;}
	.st5{fill:#57A2D4;}
	.st6{fill:#F0C020;}
	.st7{fill:#F0AB20;}
	.st8{fill:#F9E5AF;}
	.st9{fill:#FC5D3D;}
	.st10{fill:#FFCBC2;}
	.st11{fill:#FFFFFF;}
	.st12{fill:#F2E1D6;}
	.st13{fill:#AFAFAF;}
	.st14{fill:#EFEFEF;}
</style>
<g>
	<path class="st12" d="M186.3,142.9v95c0,2.8-2.2,5-5,5H9c-2.8,0-5-2.2-5-5V111.3h127.5c1.5,2.4,3.1,4.8,4.9,7l-7.4,17.9l17.9-7.4
		C158.2,137.9,172.2,142.7,186.3,142.9z"/>
	<path class="st6" d="M122.6,163.7l-13.6-3.2l-7.1-11.9c-3-5.1-10.3-5.1-13.4,0l-7.1,11.9l-13.6,3.2c-5.8,1.3-8,8.4-4.1,12.8
		l9.2,10.3l-1.3,14c-0.5,5.9,5.5,10.2,10.9,7.8l12.7-5.6l12.7,5.6c5.4,2.4,11.4-1.9,10.9-7.8l-1.3-14l9.2-10.3
		C130.6,172.1,128.3,165.1,122.6,163.7z"/>
	<path class="st13" d="M131.5,111.3H4V76.6c0-2.8,2.2-5,5-5h113.6C121.2,84.9,124,98.9,131.5,111.3z"/>
	<circle class="st9" cx="24.5" cy="91.5" r="6.2"/>
	<circle class="st6" cx="48.3" cy="91.5" r="6.2"/>
	<circle class="st0" cx="72.2" cy="91.5" r="6.2"/>
	<path class="st3" d="M187.1,13.1c-33.7,0-61.4,25.7-64.6,58.5c-1.3,13.3,1.5,27.3,8.9,39.7c1.5,2.4,3.1,4.8,4.9,7l-7.4,17.9
		l17.9-7.4c11.4,9.1,25.3,13.9,39.5,14.1C222,143.4,252,114.5,252,78C252,42.2,223,13.1,187.1,13.1z"/>
	<path class="st4" d="M187.1,133.4c-9.6,0-19-2.5-27.3-7.2c-1.2-0.7-1.6-2.2-0.9-3.4c0.7-1.2,2.2-1.6,3.4-0.9
		c7.5,4.3,16.1,6.5,24.9,6.5c27.9,0,50.4-22.5,50.4-50.4c0-13.5-5.2-26.2-14.7-35.7c-1-1-1-2.6,0-3.5c1-1,2.6-1,3.5,0
		c10.5,10.5,16.2,24.4,16.2,39.2C242.5,108.6,217.8,133.4,187.1,133.4z M151.2,120.2c-1.1-1-2.2-2-3.3-3c-1-1-1-2.6,0-3.5
		c1-1,2.6-1,3.5,0c1,1,2,1.9,3,2.8c1.1,0.9,1.2,2.5,0.3,3.5C153.9,121,152.3,121.1,151.2,120.2z"/>
	<path class="st11" d="M175.3,232h-4.2c-1.4,0-2.5-1.1-2.5-2.5s1.1-2.5,2.5-2.5h4.2c1.4,0,2.5,1.1,2.5,2.5S176.7,232,175.3,232z
		 M161.1,232H17c-1.4,0-2.5-1.1-2.5-2.5V127.6c0-1.4,1.1-2.5,2.5-2.5s2.5,1.1,2.5,2.5V227h141.6c1.4,0,2.5,1.1,2.5,2.5
		S162.5,232,161.1,232z"/>
	<path d="M123.2,161.3C123.2,161.3,123.2,161.3,123.2,161.3l-12.6-2.9l-6.6-11c-4-6.7-13.7-6.7-17.7,0l-6.5,11l-12.6,2.9
		c-7.7,1.8-10.5,11.1-5.4,16.9l8.4,9.5l-1.2,12.9c-0.7,7.9,7.3,13.5,14.4,10.4l11.7-5.1l11.7,5.1c7.2,3.2,15.1-2.6,14.4-10.3
		l-1.2-12.9l8.4-9.5C133.7,172.4,130.8,163.1,123.2,161.3z M124.8,174.9l-9.2,10.3c-0.5,0.5-0.7,1.2-0.6,1.9l1.3,14
		c0.4,3.7-3.5,7-7.4,5.3l-12.7-5.6c-0.6-0.3-1.3-0.3-2,0l-12.7,5.6c-3.9,1.7-7.8-1.6-7.4-5.3l1.3-14c0.1-0.7-0.2-1.4-0.6-1.9
		l-9.2-10.3c-2.7-3-1.2-7.7,2.8-8.7L82,163c0.7-0.1,1.2-0.6,1.6-1.1l7.1-11.9c2-3.4,7-3.5,9.1,0l7.1,11.9c0.3,0.6,0.9,1,1.6,1.1
		l13.6,3.2c0,0,0,0,0,0C126,167.1,127.4,171.9,124.8,174.9z"/>
	<path d="M15.8,91.4c0,4.8,3.9,8.7,8.7,8.7c4.8,0,8.7-3.9,8.7-8.7c0-4.8-3.9-8.7-8.7-8.7C19.7,82.8,15.8,86.7,15.8,91.4z M28.2,91.4
		c0,2-1.7,3.7-3.7,3.7c-2,0-3.7-1.7-3.7-3.7s1.7-3.7,3.7-3.7C26.5,87.8,28.2,89.4,28.2,91.4z"/>
	<path d="M48.3,82.8c-4.8,0-8.7,3.9-8.7,8.7c0,4.8,3.9,8.7,8.7,8.7c4.8,0,8.7-3.9,8.7-8.7C57,86.7,53.1,82.8,48.3,82.8z M48.3,95.1
		c-2,0-3.7-1.6-3.7-3.7c0-2,1.7-3.7,3.7-3.7c2,0,3.7,1.7,3.7,3.7C52,93.5,50.3,95.1,48.3,95.1z"/>
	<path d="M72.2,100.1c4.8,0,8.7-3.9,8.7-8.7c0-4.8-3.9-8.7-8.7-8.7c-4.8,0-8.7,3.9-8.7,8.7C63.5,96.2,67.4,100.1,72.2,100.1z
		 M72.2,87.8c2,0,3.7,1.7,3.7,3.7s-1.6,3.7-3.7,3.7c-2,0-3.7-1.7-3.7-3.7S70.1,87.8,72.2,87.8z"/>
	<circle cx="4" cy="161" r="2.5"/>
	<circle cx="57.9" cy="111.3" r="2.5"/>
	<path d="M212.8,95.2c6.8,0,12.3-5.5,12.3-12.3v-9.9c0-6.8-5.5-12.3-12.3-12.3c-6.8,0-12.3,5.5-12.3,12.3v2.4c-55.1,0-41.6,0-48.8,0
		c-1.4,0-2.5,1.1-2.5,2.5v12.3c0,1.4,1.1,2.5,2.5,2.5c1.4,0,2.5-1.1,2.5-2.5v0v-9.8h7.4v9.8c0,1.4,1.1,2.5,2.5,2.5
		c1.4,0,2.5-1.1,2.5-2.5v-9.8h33.9v2.4C200.5,89.7,206,95.2,212.8,95.2z M205.5,73.1c0-4,3.3-7.3,7.3-7.3c4,0,7.3,3.3,7.3,7.3v9.9
		c0,4-3.3,7.3-7.3,7.3c-4,0-7.3-3.3-7.3-7.3V73.1z"/>
	<path d="M247.6,107.7c0.6-1.2,0.1-2.7-1.1-3.4c-1.2-0.6-2.8-0.1-3.3,1.1c-0.6,1.2-0.1,2.7,1.1,3.4C245.5,109.4,247,109,247.6,107.7
		z"/>
	<path d="M187.1,10.6c-34,0-62.4,25.2-66.8,58.5H9c-4.1,0-7.5,3.4-7.5,7.5c0,8.6,0,62.8,0,74.4c0,1.4,1.1,2.5,2.5,2.5
		c1.4,0,2.5-1.1,2.5-2.5v-37.2h41.4c1.4,0,2.5-1.1,2.5-2.5s-1.1-2.5-2.5-2.5H6.5V76.6c0-1.4,1.1-2.5,2.5-2.5h110.9
		c-0.3,4.9-0.1,9.7,0.8,14.8h-28c-1.4,0-2.5,1.1-2.5,2.5c0,1.4,1.1,2.5,2.5,2.5h29c1.3,5.1,3.1,10.1,5.6,14.9H67.9
		c-1.4,0-2.5,1.1-2.5,2.5s1.1,2.5,2.5,2.5h62.2c1,1.7,2.2,3.3,3.4,4.9l-6.8,16.5c-0.9,2.1,1.2,4.1,3.3,3.3l16.5-6.8
		c10.5,8,23.4,13,37.4,13.6v92.6c0,1.4-1.1,2.5-2.5,2.5H9c-1.4,0-2.5-1.1-2.5-2.5V171c0-1.4-1.1-2.5-2.5-2.5c-1.4,0-2.5,1.1-2.5,2.5
		v66.9c0,4.1,3.4,7.5,7.5,7.5h172.3c4.1,0,7.5-3.4,7.5-7.5v-92.5c21.3-0.5,41.2-11.2,53.5-28.7c0.8-1.1,0.5-2.7-0.6-3.5
		c-1.1-0.8-2.7-0.5-3.5,0.6c-11.7,16.7-30.8,26.6-51,26.6c-14.4,0-28.1-4.9-38.9-13.5c-0.7-0.6-1.7-0.7-2.5-0.4l-12.3,5.1l5.1-12.3
		c0.3-0.8,0.2-1.8-0.3-2.5c-9.1-11.5-13.5-25.3-13.5-38.7c0-34.5,27.7-62.4,62.4-62.4c34.4,0,62.4,27.8,62.4,62.4
		c0,6.3-0.9,12.6-2.8,18.6c-0.4,1.3,0.3,2.7,1.6,3.1c1.3,0.4,2.7-0.4,3.1-1.6c2-6.5,3-13.2,3-20.1C254.5,40.8,224.3,10.6,187.1,10.6
		z"/>
</g>
</svg>
