<?xml version="1.0" encoding="utf-8"?>
<!-- Generator: Adobe Illustrator 22.1.0, SVG Export Plug-In . SVG Version: 6.00 Build 0)  -->
<svg version="1.1" id="Layer_1" xmlns="http://www.w3.org/2000/svg" xmlns:xlink="http://www.w3.org/1999/xlink" x="0px" y="0px"
	 viewBox="0 0 256 256" style="enable-background:new 0 0 256 256;" xml:space="preserve">
<style type="text/css">
	.st0{fill:#13BF6D;}
	.st1{fill:#76FFBA;}
	.st2{fill:#139C6D;}
	.st3{fill:#72C1E8;}
	.st4{fill:#C5E5FF;}
	.st5{fill:#57A2D4;}
	.st6{fill:#F0C020;}
	.st7{fill:#F0AB20;}
	.st8{fill:#F9E5AF;}
	.st9{fill:#FC5D3D;}
	.st10{fill:#FFCBC2;}
	.st11{fill:#FFFFFF;}
	.st12{fill:#F2E1D6;}
	.st13{fill:#AFAFAF;}
	.st14{fill:#EFEFEF;}
</style>
<g>
	<path class="st9" d="M248.3,103.9V233H7.7V103.9l40.1-27.3V131l77.5,52.4c1.6,1.1,3.8,1.1,5.4,0l77.5-52.4V76.6L248.3,103.9z"/>
	<path class="st9" d="M157.3,41.9H98.7l26.5-18.1c1.7-1.1,3.8-1.1,5.5,0L157.3,41.9z"/>
	<path class="st14" d="M203.3,41.9c-10.3,0-145.4,0-150.7,0c-2.7,0-4.9,2.2-4.9,4.9c0,9.1,0,75.1,0,84.2l77.5,52.4
		c1.6,1.1,3.8,1.1,5.4,0l77.5-52.4V76.6V46.8C208.2,44.1,206,41.9,203.3,41.9z"/>
	<path class="st10" d="M236.3,225.1H57.5c-1.3,0-2.4-1.1-2.4-2.4c0-1.3,1.1-2.4,2.4-2.4h176.4v-87.1c0-1.3,1.1-2.4,2.4-2.4
		c1.3,0,2.4,1.1,2.4,2.4v89.5C238.8,224,237.7,225.1,236.3,225.1z M47.8,225.1h-9.5c-1.3,0-2.4-1.1-2.4-2.4c0-1.3,1.1-2.4,2.4-2.4
		h9.5c1.3,0,2.4,1.1,2.4,2.4C50.2,224,49.1,225.1,47.8,225.1z"/>
	<path class="st11" d="M197.6,126.1c-1.3,0-2.4-1.1-2.4-2.4v-3.2c0-1.3,1.1-2.4,2.4-2.4c1.3,0,2.4,1.1,2.4,2.4v3.2
		C200.1,125,199,126.1,197.6,126.1z M197.6,113.2c-1.3,0-2.4-1.1-2.4-2.4V54.5H59.9c-1.3,0-2.4-1.1-2.4-2.4c0-1.3,1.1-2.4,2.4-2.4
		h137.7c1.3,0,2.4,1.1,2.4,2.4v58.7C200.1,112.1,199,113.2,197.6,113.2z"/>
	<path class="st9" d="M128,58.3c-21.6,0-39.2,17.5-39.2,39.2c0,18.2,28.2,51.7,39.2,65.6c11.1-14.1,39.2-47.4,39.2-65.6
		C167.2,75.8,149.6,58.3,128,58.3z"/>
	<path class="st10" d="M126,152.9c-0.8-1-1.5-2.1-2.3-3.1c-0.8-1.1-0.6-2.6,0.5-3.4c1.1-0.8,2.6-0.6,3.4,0.5
		c0.8,1.1,1.6,2.1,2.3,3.1c0.8,1.1,0.6,2.6-0.5,3.4C128.4,154.2,126.8,154,126,152.9z M117.9,142c-12.9-17.3-24.5-33.8-24.5-44.6
		c0-19.1,15.5-34.6,34.6-34.6c1.3,0,2.4,1.1,2.4,2.4c0,1.3-1.1,2.4-2.4,2.4c-16.4,0-29.7,13.3-29.7,29.7c0,9.3,12.2,26.4,23.5,41.7
		c0.8,1.1,0.6,2.6-0.5,3.4C120.2,143.3,118.7,143.1,117.9,142z"/>
	<circle class="st11" cx="128" cy="97.5" r="22.9"/>
	<path d="M249.6,101.9C249.6,101.9,249.6,101.9,249.6,101.9l-39-26.5V46.8c0-4-3.3-7.3-7.3-7.3h-14c-1.3,0-2.4,1.1-2.4,2.4
		c0,1.3,1.1,2.4,2.4,2.4h14c1.3,0,2.4,1.1,2.4,2.4c0,8.4,0,73.4,0,82.9c-18.2,12.3-58.2,39.3-76.4,51.7c-0.9,0.6-2,0.5-2.7,0
		c-38.6-26.1-39.7-26.9-76.4-51.7c0-9.5,0-74.5,0-82.9c0-1.3,1.1-2.4,2.4-2.4c8.6,0,117.2,0,117.2,0c1.3,0,2.4-1.1,2.4-2.4
		c0-1.3-1.1-2.4-2.4-2.4l-11.9,0l-25.9-17.6c-2.5-1.7-5.7-1.7-8.2,0L98,39.5l-45.3,0c-4,0-7.3,3.3-7.3,7.3v28.6l-39,26.6
		c-0.6,0.4-1.1,1.2-1.1,2v31.9c0,1.3,1.1,2.4,2.4,2.4s2.4-1.1,2.4-2.4v-27.4c7.9,5.4,68.6,46.4,77.5,52.4l-77.5,66.8v-72.4
		c0-1.3-1.1-2.4-2.4-2.4s-2.4,1.1-2.4,2.4V233c0,1.4,1.1,2.4,2.4,2.4c12.9,0,228.1,0,240.5,0c1.3,0,2.4-1.1,2.4-2.4V103.9
		C250.7,103.2,250.3,102.4,249.6,101.9z M126.6,25.9c0.8-0.6,1.9-0.6,2.7,0l20,13.6c-4.4,0-35.7,0-42.7,0L126.6,25.9z M45.4,126.4
		l-33.3-22.5l33.3-22.7V126.4z M210.6,81.2l33.3,22.7l-33.3,22.5V81.2z M14.3,230.6l77.5-66.9c18.1,12.2,22.8,15.4,32.1,21.7
		c2.5,1.7,5.7,1.7,8.2,0l32.1-21.7l77.5,66.9H14.3z M245.8,227.7l-77.5-66.8c3.7-2.5,59.1-40,77.5-52.4V227.7z"/>
	<circle cx="179.6" cy="41.9" r="2.4"/>
	<circle cx="7.7" cy="145.6" r="2.4"/>
	<path d="M102.7,97.5c0,13.9,11.3,25.3,25.3,25.3s25.3-11.3,25.3-25.3c0-13.9-11.3-25.3-25.3-25.3S102.7,83.5,102.7,97.5z
		 M148.4,97.5c0,11.3-9.2,20.4-20.4,20.4s-20.4-9.2-20.4-20.4c0-11.3,9.2-20.4,20.4-20.4S148.4,86.2,148.4,97.5z"/>
	<path d="M163.4,83.2c0.4,0,0.7-0.1,1-0.2c0.6-0.3,1-0.8,1.3-1.4c0.2-0.6,0.2-1.3-0.1-1.9c-0.6-1.2-2.1-1.7-3.2-1.2
		c-0.6,0.3-1,0.8-1.2,1.4c-0.2,0.6-0.2,1.3,0.1,1.9C161.6,82.6,162.5,83.2,163.4,83.2z"/>
	<path d="M156.4,74.1c0.8,1,2.4,1.1,3.4,0.3c1-0.9,1.2-2.4,0.3-3.4c-7.9-9.6-19.6-15.1-32.1-15.1c-23,0-41.6,18.6-41.6,41.6
		c0.2,19.2,27.5,51.6,39.7,67.1c0.9,1.2,2.8,1.3,3.8,0c12.5-15.9,39.5-47.9,39.7-67.1c0-2.7-0.3-5.3-0.8-8c-0.2-1.3-1.5-2.2-2.8-1.9
		c-1.3,0.3-2.2,1.5-1.9,2.8c0.4,2.3,0.7,4.7,0.7,7c0.2,16.3-26.7,49.1-36.7,61.7c-10.3-12.6-37-45.6-36.7-61.7
		c0-20.3,16.4-36.7,36.7-36.7C139,60.7,149.3,65.6,156.4,74.1z"/>
	<path d="M119.1,90.6c0,1.3,1.1,2.4,2.4,2.4c1.3,0,2.4-1.1,2.4-2.4c0-2.3,2-4.2,4.3-4.1c2,0.1,3.7,1.8,3.8,3.8
		c0.1,1.6-0.8,3.1-2.2,3.9c-2.6,1.4-4.3,4.1-4.3,7.2v0.8c0,1.3,1.1,2.4,2.4,2.4c1.3,0,2.4-1.1,2.4-2.4v-0.8c0-1.2,0.7-2.3,1.7-2.8
		c3.1-1.6,5-5,4.8-8.5c-0.3-4.5-3.9-8.1-8.3-8.3C123.3,81.4,119.1,85.6,119.1,90.6z"/>
	<path d="M128,107.4c-1.3,0-2.4,1.1-2.4,2.4v0.9c0,1.3,1.1,2.4,2.4,2.4c1.3,0,2.4-1.1,2.4-2.4v-0.9
		C130.4,108.5,129.3,107.4,128,107.4z"/>
</g>
</svg>
