<?xml version="1.0" encoding="utf-8"?>
<!-- Generator: Adobe Illustrator 22.1.0, SVG Export Plug-In . SVG Version: 6.00 Build 0)  -->
<svg version="1.1" id="katman_1" xmlns="http://www.w3.org/2000/svg" xmlns:xlink="http://www.w3.org/1999/xlink" x="0px" y="0px"
	 viewBox="0 0 513.9 159.3" style="enable-background:new 0 0 513.9 159.3;" xml:space="preserve">
<style type="text/css">
	.st0{fill:#EA4335;}
	.st1{fill:#4285F4;}
	.st2{fill:#FBBC05;}
	.st3{fill:#34A853;}
	.st4{fill:#020202;}
	.st5{font-family:'Barlow-Bold';}
	.st6{font-size:76.1428px;}
	.st7{font-family:'Barlow-Light';}
</style>
<g>
	<g>
		<path class="st0" d="M85.4,52.8l42.2-42.2c2.4-2.4,2.4-6.4,0-8.8c-2.4-2.4-6.4-2.4-8.8,0L85.4,35.2L66.5,16.4
			c-2.4-2.4-6.4-2.4-8.8,0c-2.4,2.4-2.4,6.4,0,8.8L85.4,52.8z"/>
		<path class="st1" d="M25,76.6c0.5,0,1.1-0.1,1.6-0.2l37.8-10.1L48.9,8.6c-0.9-3.3-4.3-5.3-7.6-4.4C38,5.1,36,8.5,36.9,11.8
			l12.2,45.6l-25.7,6.9c-3.3,0.9-5.3,4.3-4.4,7.6C19.7,74.7,22.2,76.6,25,76.6z"/>
		<path class="st2" d="M47.7,133.3c0.5,0.1,1.1,0.2,1.6,0.2c2.7,0,5.3-1.8,6-4.6l10.1-37.8L7.8,75.7c-3.3-0.9-6.7,1.1-7.6,4.4
			c-0.9,3.3,1.1,6.7,4.4,7.6l45.6,12.2l-6.9,25.7C42.5,129,44.4,132.4,47.7,133.3z"/>
		<path class="st0" d="M87.6,102.6l-42.2,42.2c-2.4,2.4-2.4,6.4,0,8.8c1.2,1.2,2.8,1.8,4.4,1.8s3.2-0.6,4.4-1.8l33.4-33.4l18.8,18.8
			c2.4,2.4,6.4,2.4,8.8,0c2.4-2.4,2.4-6.4,0-8.8L87.6,102.6z"/>
		<path class="st3" d="M146.3,79.1l-37.8,10.1l15.4,57.7c0.7,2.8,3.3,4.6,6,4.6c0.5,0,1.1-0.1,1.6-0.2c3.3-0.9,5.3-4.3,4.4-7.6
			L123.8,98l25.7-6.9c3.3-0.9,5.3-4.3,4.4-7.6C153.1,80.1,149.7,78.2,146.3,79.1z"/>
		<path class="st2" d="M168.3,67.7l-45.6-12.2l6.9-25.7c0.9-3.3-1.1-6.7-4.4-7.6c-3.3-0.9-6.7,1.1-7.6,4.4l-10.1,37.8l57.7,15.4
			c0.5,0.1,1.1,0.2,1.6,0.2c2.7,0,5.3-1.8,6-4.6C173.6,72,171.7,68.6,168.3,67.7z"/>
	</g>
	<g>
		<g>
			<text transform="matrix(1 0 0 1 189.5361 74.2239)"><tspan x="0" y="0" class="st4 st5 st6">STERN</tspan><tspan x="0" y="69.2" class="st4 st7 st6">LOSCHER</tspan></text>
		</g>
		<g>
			<circle class="st4" cx="246.6" cy="83.9" r="2.3"/>
			<circle class="st4" cx="265" cy="83.9" r="2.3"/>
		</g>
	</g>
</g>
</svg>
